<svg width="30" height="30" viewBox="0 0 30 30" fill="none" xmlns="http://www.w3.org/2000/svg">
<path d="M27.8384 21.7211V21.2211H27.8383V8.27892C27.8383 4.90556 25.0944 2.16175 21.7209 2.16175H8.27874C4.90537 2.16175 2.16175 4.90559 2.16175 8.27892V21.7211C2.16175 25.0946 4.90536 27.8384 8.27874 27.8383H21.7211C25.0946 27.8383 27.8384 25.0946 27.8384 21.7211ZM8.27874 0.5H21.7209C26.01 0.5 29.5002 3.99018 29.5 8.2789V21.7211C29.5 26.0098 26.01 29.5 21.7209 29.5H8.27874C3.98999 29.5 0.5 26.01 0.5 21.7211V8.27892C0.5 3.99015 3.99 0.5 8.27874 0.5Z" fill="#21243D" stroke="black"/>
<path d="M7.76978 15.0004C7.76978 11.014 11.0136 7.77014 15 7.77014C18.9864 7.77014 22.2303 11.014 22.2303 15.0004C22.2303 18.9866 18.9864 22.2303 15 22.2303C11.0136 22.2303 7.76978 18.9866 7.76978 15.0004ZM9.43152 15.0002C9.43152 18.071 11.9293 20.5683 15 20.5683C18.0708 20.5683 20.5685 18.071 20.5685 15.0002C20.5685 11.9292 18.071 9.43171 15 9.43171C11.929 9.43171 9.43152 11.9292 9.43152 15.0002Z" fill="#21243D" stroke="black"/>
<path d="M22.0282 5.93907L22.0282 5.93908L22.03 5.93735C22.2976 5.66856 22.6735 5.51318 23.0544 5.51318C23.4374 5.51318 23.8134 5.66878 24.0806 5.93726L24.0806 5.93726L24.0823 5.93899C24.3508 6.20616 24.5064 6.58215 24.5064 6.96513C24.5064 7.34565 24.3512 7.72207 24.0819 7.99167C23.811 8.26102 23.4355 8.41708 23.0544 8.41708C22.6745 8.41708 22.2976 8.26058 22.0292 7.99214C21.7587 7.72166 21.6025 7.34486 21.6025 6.96513C21.6025 6.58321 21.7589 6.20695 22.0282 5.93907Z" fill="#21243D" stroke="black"/>
</svg>
